<svg xmlns="http://www.w3.org/2000/svg" version="1.0" viewBox="13.18 12.94 566.68 1331.07"><path fill="#000" d="M286.7 15.4c-2.2 1.3-5.1 4.1-6.5 6.1l-2.7 3.8-.3 93.9c-.2 64.8.1 95.1.8 97.9 1.9 7.1 11.2 13.9 18.7 13.9 3.6 0 9.8-2.9 13-5.9 6.6-6.3 6.3-.8 6.3-103.8 0-91.1 0-93.5-2-97.1-2.7-5.1-3.9-6.4-8.1-9-5.1-3.1-14-3-19.2.2zM118.2 45.6c-3.8 1.7-6.5 4.2-9.2 8.7-2.9 4.6-2.6 11.9.9 22.4 1.6 4.9 5 15.5 7.6 23.8C123 118 127.8 132.9 133 149c2 6.3 5.4 16.9 7.5 23.5 16.2 51.5 17.3 53.9 26.2 56.9 5.7 1.9 7.6 2 12.8.2 4.9-1.7 10-6.5 12-11.2 1.7-4.1 2-11.5.6-14.2-.6-.9-2.4-6.2-4.1-11.7-4.9-16.1-10-32.2-14-44.5-2.1-6.3-5.5-16.9-7.5-23.5-2.1-6.6-5.5-17.2-7.5-23.5-2.1-6.3-5.5-16.9-7.5-23.5-7.5-24.4-9.4-28-17.2-31.9-3.9-1.9-11.6-2-16.1 0zM458.1 46.7c-6.4 3.3-9.3 8-13.9 23.3-6.2 20.2-10.4 33.6-11.2 35.5-.4 1.1-2.5 7.4-4.5 14-2.1 6.6-4.8 15.1-6 19-1.3 3.8-4.6 14.4-7.5 23.5-6.8 21.5-9.2 29-12.1 37.5-3.3 10-3.1 17.4.7 22.8 6 8.5 16 11 25.4 6.4 6-3 8-6.3 13-21.9 2.3-7.3 4.8-15.1 5.5-17.3.8-2.2 4.2-12.8 7.5-23.5 3.4-10.7 7.2-22.7 8.5-26.5 1.3-3.9 4-12.4 6-19s5.4-17.2 7.5-23.5c8.7-26.4 9.3-28.7 8.8-34.9-.5-7.4-3.6-12.3-9.6-15.2-6.9-3.4-11.8-3.4-18.1-.2zM44.8 282c-16.6 5.5-28.6 19.4-30.9 35.9-.5 3.6-.8 37.2-.7 74.6l.3 68h566l.3-70c.2-75.2.2-75.9-4.9-86.5-2.8-5.8-13.2-16.1-18.9-18.7-2.5-1.1-5.8-2.7-7.5-3.4-2.5-1.2-43.9-1.4-250.5-1.6-239.8-.2-247.7-.1-253.2 1.7zM15.7 508.6c-.8.8 4.5 11.2 9.4 18.7 2.2 3.2 3.9 6.2 3.9 6.6 0 .4 1.4 2.7 3 4.9 1.7 2.3 3 4.4 3 4.8 0 .5 6.9 11.8 12.2 20.2 1 1.5 2.1 3.4 2.5 4.2.3.8 1.8 3.3 3.2 5.5 1.4 2.2 3.1 4.9 3.8 6 .6 1.1 11.9 19.7 25 41.4 13.1 21.6 24.8 41.2 26.1 43.4 1.2 2.2 2.9 4.8 3.7 5.7.8.9 1.5 2 1.5 2.3 0 .4 1.8 3.6 3.9 7.1 4.9 8 7.8 14.6 9.1 21.1.6 2.9 1.4 36.5 2 79 .5 40.7 1.4 92.9 2 116 .5 23.1 1.2 60.9 1.5 84 .3 23.1.9 60.2 1.5 82.5 1.1 45.5 3.1 153.5 3.7 206.5.4 37.6.9 41.8 5.9 51.7 3.5 7 11.4 15.1 17.7 18.2 11.7 5.9 4.7 5.6 135.5 5.6 135.3 0 128 .4 139.6-7.4 7.4-5 14.6-13.8 17.5-21.4 3.3-8.5 4-34.2 7.1-263.2.5-40.4 1.4-91.5 2-113.5.6-22 1.6-69 2.1-104.5 1.9-123.6 2.3-134.7 4.8-141 1.9-4.6 9.6-18.3 16.3-28.8 2.5-4 4-6.5 6.5-10.8 1.3-2.2 3.3-5.5 4.5-7.5 3.2-5.1 56.1-92.6 57.3-94.7 4-6.9 7.4-12.6 11.2-18.4 2.3-3.7 4.3-7 4.3-7.4 0-.4.6-1.5 1.4-2.3 2.4-2.7 7.6-13.3 7-14.2-.6-1-560.7-1.3-561.7-.3zm292.9 199.1c13.7 4.6 24.5 16.6 27.4 30.3.8 4 1 31.8.8 102.5-.3 106.7 0 100.3-6.5 109.7-6.8 9.9-15.8 15.9-27 18-17.5 3.2-35.2-6.2-43.5-23l-3.3-6.7v-202l2.3-5c5.3-11.3 14.5-20.1 25.2-23.8 6.1-2.1 18.4-2.1 24.6 0z"></path><path fill="#000" d="M291.4 718.9c-6.1 1.5-12.5 5.3-15.8 9.4-7 8.8-6.6 2.1-6.6 109.6v96.8l3.1 6.1c5.4 10.9 15.5 16.1 28.6 14.7 10.4-1.1 20.1-9.8 22.3-20.1.7-3.3 1-36.7.8-101.4l-.3-96.5-2.8-4.7c-1.6-2.6-4.3-6-6-7.4-6.3-5.3-16.7-8.2-23.3-6.5zm16.4 7.5c5.8 3.7 8.9 7.6 10.6 13.5 1.4 4.7 1.6 12.4 1.6 52.1 0 51.2-.1 52.6-5.9 59.9-4.7 5.9-10.6 8.4-18.9 7.9-8.1-.5-13.7-3.6-17.9-10l-2.8-4.2-.3-51.5c-.2-35.4 0-52.8.8-55.4 1.9-6.4 8.8-12.9 16-14.9 4.4-1.2 12.9.1 16.8 2.6z"></path></svg>