<svg xmlns="http://www.w3.org/2000/svg" version="1.0" viewBox="8.13 16.07 705.97 1321.93"><path fill="#fff" d="M51.5 16.7c-9.9 2.4-22.5 10-29.3 17.7-5.1 5.8-10.3 16.1-12.3 24.5C8.1 66.4 8 71 8.2 153.6l.3 86.9 350.5.3c192.8.1 351.5 0 352.8-.3l2.3-.6-.3-89.2c-.4-88.8-.4-89.2-2.6-95.5-3.4-10-7.2-16.1-14.2-23.2-6.9-6.9-15-11.8-23.9-14.4-5-1.5-34.1-1.6-312.5-1.5-168.9.1-308 .3-309.1.6zM11.5 299c-.4.6.4 3.2 1.6 5.8 1.9 3.9 37.1 62.8 51.9 86.7 2.4 3.8 4.9 8.1 5.7 9.5.8 1.4 2.2 3.7 3.1 5.2 2 3.2 11.3 18.5 12.7 21 .6 1 12.5 20.7 26.5 43.8 30.7 50.7 31.4 51.9 34 59.7 2.7 8 3.7 33.3 5 128.8.7 57.3 2.5 164.6 4.5 266.5.2 11.3.8 51.5 1.4 89.5.6 37.9 1.3 78 1.6 89 .3 11.1 1 45.3 1.5 76 1.7 92.8 2 106.8 3 112.5 2.7 15.4 15.4 32.1 29.3 38.5 14.9 6.9 5.1 6.5 167.7 6.5 162.3 0 152.9.4 167.5-6.4 13.8-6.4 25.7-21.6 29.1-37.3 1-5.1 1.7-20.7 2.4-61.8.6-30.3 1.3-66.7 1.5-81 1.5-70 6.5-368.6 7.5-442 .5-38 1.4-81.4 1.9-96.5.6-15.1 1-37.6 1.1-49.9 0-30.9.1-31.2 17.8-60.6 5.7-9.4 10.8-17.9 11.5-19 .7-1.1 3.1-5 5.5-8.8 2.3-3.7 4.2-7 4.2-7.3 0-.3 1.5-2.9 3.3-5.7 7.2-11.3 8.7-13.7 8.7-14.2 0-.3 2-3.6 4.4-7.3 3.2-5 37.6-61.6 48.9-80.7.7-1 2.3-3.7 3.7-6 1.3-2.2 3.4-5.6 4.5-7.5 4.7-8 6.2-10.5 9.9-16.4 6.8-10.6 14.8-25 15.6-27.8.6-2 .4-2.8-.7-3.2-2.8-1.1-697.1-.7-697.8.4zm360.1 246.8c10.4 2.8 16.1 5.9 23.6 13 7.6 7.2 13.1 16.8 14.8 26.1.6 3.4 1 49.3 1 124 0 130.6.3 124.1-6.2 136.3-3.7 6.9-14.5 17.5-20.9 20.5-8.6 4.1-15.1 5.6-23.5 5.5-20.2 0-38-12.4-46-31.7l-2.9-7-.3-123c-.2-112-.1-123.4 1.4-128 2.9-8.9 6.5-14.8 13.1-21.6 6.9-7.2 13.8-11.1 24.3-14 8.4-2.3 13.1-2.3 21.6-.1z"/><path fill="#fff" d="M352.5 561.4c-7.2 2-11.2 4.5-16.8 10.5-10 10.9-9.2-1-9.5 133.5-.2 103.8-.1 118.6 1.3 124 4.9 19.4 25.4 31 43.6 24.7 10.5-3.7 16.5-9.1 21.5-19.6l2.4-5v-243l-2.9-6c-4.6-9.9-12.2-16.2-22.9-18.9-6.8-1.8-10.9-1.8-16.7-.2zm16.1 119.3c9.5 3.2 15.3 8.5 19.2 17.6.9 2.1 1.2 18.9 1.2 66.3 0 70.2.3 66.7-6.6 75-4.5 5.6-14.3 10.4-21 10.4-10.6 0-20.8-6.6-25.9-16.6l-3-5.9-.3-60.9c-.2-52.5 0-61.6 1.3-66 2.9-9.7 9.4-16.4 19.5-19.9 5.9-2 9.6-2.1 15.6 0z"/></svg>